<svg version="1.1" id="Layer_1" xmlns="http://www.w3.org/2000/svg" xmlns:xlink="http://www.w3.org/1999/xlink" x="0px" y="0px"
	 width="100%" viewBox="0 0 663 235" enable-background="new 0 0 663 235" xml:space="preserve">
<path fill="#FEFEFE" opacity="1.000000" stroke="none" 
	d="
M508.000000,236.000000 
	C340.213226,236.000000 172.926422,235.988693 5.639685,236.077637 
	C2.145783,236.079483 0.876328,235.702423 0.884776,231.641907 
	C1.041829,156.163239 1.036047,80.684082 0.892247,5.205359 
	C0.885148,1.478909 1.806152,0.911617 5.292520,0.913160 
	C223.398453,1.009716 441.504425,1.006585 659.610413,0.936396 
	C662.832886,0.935359 664.136230,1.110309 664.127136,5.108341 
	C663.954651,80.753563 663.967957,156.399353 664.101562,232.044724 
	C664.107788,235.557571 663.286072,236.099411 659.957092,236.090805 
	C609.471680,235.960083 558.985779,236.000000 508.000000,236.000000 
z"/>
<path fill="#272626" opacity="1.000000" stroke="none" 
	d="
M395.085236,228.611145 
	C356.260742,228.866898 317.767456,228.824249 279.274170,228.819595 
	C189.621017,228.808731 99.967728,228.761185 10.314998,228.955673 
	C5.057075,228.967087 4.169565,227.464813 4.180651,222.615280 
	C4.341402,152.292923 4.290757,81.970055 4.291005,11.647316 
	C4.291028,5.143402 4.292042,5.143224 11.037809,5.143039 
	C144.684296,5.139368 278.330780,5.135742 412.437805,5.089099 
	C414.585541,7.427157 413.183319,9.605233 412.187225,11.583632 
	C399.232147,37.315388 387.117462,63.460609 374.003174,89.112740 
	C373.191315,90.700790 372.453186,92.886482 370.382629,92.802223 
	C368.635223,92.731125 367.929688,90.711899 367.200134,89.236870 
	C361.447968,77.606865 351.438171,72.954193 339.146362,72.547180 
	C328.331818,72.189087 317.498810,72.548653 306.676178,72.417564 
	C302.808990,72.370735 301.317566,73.912498 301.426636,77.740662 
	C301.947906,96.036102 300.533264,114.358078 302.275635,132.644287 
	C302.733765,137.451889 301.220551,142.205521 301.389709,147.071915 
	C301.519531,150.805801 302.851074,152.640823 306.709259,152.535812 
	C319.513397,152.187286 332.346283,153.339737 345.128876,151.741135 
	C350.141449,151.114258 355.042603,152.658844 360.059052,152.596954 
	C372.546753,152.442841 385.037781,152.521301 397.527344,152.555573 
	C405.976379,152.578751 406.558838,153.221985 405.488068,161.357391 
	C402.816223,181.657425 400.077057,201.948563 397.380920,222.245407 
	C397.096191,224.388916 396.890015,226.566391 395.085236,228.611145 
z"/>
<path fill="#272626" opacity="1.000000" stroke="none" 
	d="
M449.800110,5.465004 
	C517.254395,5.174862 584.418335,5.183351 651.582092,5.068874 
	C654.910767,5.063201 655.777039,6.016137 655.773254,9.267998 
	C655.690186,81.098648 655.676880,152.929474 655.799072,224.760010 
	C655.805786,228.703812 654.111572,228.868546 651.043945,228.865784 
	C574.713440,228.797012 498.382904,228.804199 421.595520,228.743713 
	C419.655487,225.433533 422.287537,223.322052 423.605072,221.107910 
	C435.278137,201.491547 446.529358,181.630173 458.095001,161.951752 
	C471.179626,139.688843 484.226685,117.402222 497.110718,95.021629 
	C499.710449,90.505722 499.650452,90.699356 494.236481,90.276207 
	C477.144073,88.940300 459.993744,89.286201 442.890381,88.334404 
	C437.569366,88.038300 436.619965,87.060730 437.329773,82.001740 
	C440.638397,58.420025 444.249847,34.882183 447.600952,11.306527 
	C447.881378,9.333645 448.022430,7.302681 449.800110,5.465004 
z"/>
<path fill="#96D8FD" opacity="1.000000" stroke="none" 
	d="
M417.088135,227.963608 
	C412.271271,229.641068 407.632812,228.597137 402.609650,228.917068 
	C400.346985,227.298676 400.984558,225.278305 401.227203,223.313522 
	C403.921814,201.493683 407.010162,179.725861 410.004822,157.946701 
	C410.534912,154.091537 409.650208,152.624023 405.685822,152.073608 
	C396.867493,150.849258 388.045441,151.567505 379.229950,151.401886 
	C371.067108,151.248505 362.898468,151.448380 354.734009,151.339005 
	C348.330261,151.253220 347.500031,149.972275 350.407379,144.231750 
	C363.583649,118.215302 375.953064,91.803268 389.038361,65.740875 
	C398.158813,47.575333 406.717651,29.128412 415.980835,11.030170 
	C416.961090,9.114954 417.664825,7.014019 419.698303,5.287284 
	C427.353973,4.968305 434.725006,4.940026 442.564911,4.959034 
	C444.276093,6.440465 443.974854,8.090033 443.735291,9.753899 
	C440.843719,29.837177 438.147675,49.948879 435.045288,70.001282 
	C434.384003,74.275482 434.195251,78.615929 433.246613,82.842155 
	C432.569672,85.857903 433.346161,87.265678 436.724426,87.866341 
	C444.832733,89.308022 452.992737,88.288597 461.111053,88.941422 
	C471.045898,89.740326 481.037231,89.516106 490.994995,90.004211 
	C496.972198,90.297188 497.458344,91.076935 494.378021,96.452293 
	C486.685394,109.876312 478.884338,123.238625 471.079803,136.597672 
	C454.127533,165.614914 437.302124,194.706146 420.261108,223.671478 
	C419.424500,225.093506 418.814056,226.689499 417.088135,227.963608 
z"/>
<path fill="#FCF6EA" opacity="1.000000" stroke="none" 
	d="
M419.541138,4.997298 
	C419.227386,6.831249 418.575073,8.716700 417.701233,10.493162 
	C395.520599,55.583290 373.315613,100.661423 351.123688,145.746017 
	C350.549438,146.912689 350.074280,148.128113 349.226715,150.067047 
	C353.030853,150.067047 356.277649,150.000427 359.520966,150.078323 
	C375.488159,150.461823 391.461731,149.554688 407.439789,150.717636 
	C412.365204,151.076126 412.169128,152.983185 411.659912,156.656204 
	C408.361267,180.449783 405.239838,204.267944 402.108643,228.498337 
	C399.995544,228.932190 397.834137,228.945740 395.213379,228.925812 
	C397.489166,209.127594 400.222931,189.362701 402.960632,169.598343 
	C403.485321,165.810349 403.768463,161.964767 404.630554,158.254395 
	C405.492523,154.544464 404.197754,153.858185 400.717468,153.818024 
	C369.066284,153.452820 337.415558,153.482666 305.769440,154.015610 
	C301.008759,154.095779 300.152435,152.687485 300.179413,148.144836 
	C300.320862,124.326454 300.142670,100.503860 299.793091,76.686890 
	C299.726471,72.147484 300.906555,70.744736 305.562653,70.907738 
	C316.212494,71.280586 326.884216,70.999451 337.546844,71.040199 
	C353.003082,71.099258 364.521393,77.268135 370.480072,93.079865 
	C372.537140,89.012573 374.353882,85.480743 376.115021,81.921402 
	C377.881500,78.351295 379.575592,74.745445 381.330566,71.169563 
	C391.496857,50.454918 401.676331,29.746748 411.830292,9.026074 
	C412.336945,7.992199 412.647736,6.862353 412.974060,5.411643 
	C414.965363,5.030064 417.032318,5.014035 419.541138,4.997298 
z"/>
<path fill="#7ABADD" opacity="1.000000" stroke="none" 
	d="
M417.144165,228.348267 
	C420.102875,219.839508 425.368805,212.526993 429.836975,204.779709 
	C443.682922,180.772507 457.656738,156.839035 471.595123,132.885223 
	C479.023132,120.119888 486.475342,107.368652 493.934509,94.621521 
	C494.510681,93.636818 495.433533,92.814651 495.134979,91.374756 
	C494.727234,91.258759 494.282806,91.009293 493.849091,91.026726 
	C478.550232,91.641640 463.309814,89.426460 448.022308,90.043732 
	C443.155853,90.240227 438.465118,88.987076 433.654846,88.994179 
	C431.329132,88.997604 430.924652,87.757828 431.230194,85.735069 
	C434.805725,62.061066 438.350708,38.382427 441.883118,14.701937 
	C442.321869,11.760623 442.641449,8.801537 443.025024,5.428504 
	C445.101624,4.991238 447.169464,4.976154 449.663879,5.076073 
	C447.414093,22.933224 444.721771,40.672989 442.068481,58.418587 
	C440.864685,66.469650 439.961395,74.573647 438.478851,82.571526 
	C437.779663,86.343445 438.906464,87.009155 442.390839,87.097069 
	C462.021179,87.592361 481.645599,88.322769 501.353973,88.975723 
	C501.517578,91.336060 499.993958,92.796074 499.031219,94.445282 
	C473.384369,138.380234 447.708588,182.298294 422.049316,226.226013 
	C421.720642,226.788742 421.542419,227.439392 421.216370,228.369263 
	C419.926208,228.615067 418.713715,228.540604 417.144165,228.348267 
z"/>
<path fill="#FDF7EA" opacity="1.000000" stroke="none" 
	d="
M88.000000,153.953445 
	C78.835350,153.953232 70.170326,153.908661 61.506313,153.982758 
	C59.228298,154.002243 57.700329,153.886658 57.988071,150.846313 
	C60.351364,125.875381 57.412678,100.891365 57.992737,75.906586 
	C58.085041,71.930656 59.095490,70.877899 63.029408,70.934563 
	C78.689178,71.160095 94.354614,70.957222 110.016823,71.070442 
	C114.997894,71.106453 120.006989,71.442093 124.190659,74.806686 
	C133.716980,82.467964 132.526215,99.431511 122.008194,106.305908 
	C120.686249,107.169914 118.288345,107.377785 118.414246,109.325859 
	C118.539207,111.259331 120.912682,111.171333 122.348045,111.807625 
	C125.018196,112.991287 127.441986,114.584770 128.804260,117.106300 
	C133.290283,125.409927 133.282516,134.259079 129.627136,142.582779 
	C126.167702,150.460297 118.810448,153.579285 110.492645,153.890732 
	C103.171249,154.164871 95.831596,153.951523 88.000000,153.953445 
z"/>
<path fill="#FEF8EB" opacity="1.000000" stroke="none" 
	d="
M220.303589,153.836990 
	C218.282349,152.699432 218.852112,151.062485 218.850433,149.648788 
	C218.821045,124.848206 218.868484,100.047470 218.794525,75.247078 
	C218.785538,72.233299 219.359070,70.848625 222.878387,70.937927 
	C233.025558,71.195419 243.186127,71.158867 253.335632,70.952362 
	C256.529449,70.887390 257.093719,72.012451 257.219421,74.941963 
	C257.811920,88.748749 258.207367,102.543518 257.714111,116.366966 
	C257.477783,122.990570 258.439941,123.710411 265.167877,123.927582 
	C272.999878,124.180389 280.812744,123.758965 288.603394,123.053528 
	C291.725342,122.770836 292.581665,123.838066 292.491302,126.921501 
	C292.267151,134.569458 292.215057,142.235519 292.497528,149.879410 
	C292.627380,153.392654 291.302032,153.978729 288.191437,153.962830 
	C265.720703,153.847931 243.249130,153.894882 220.303589,153.836990 
z"/>
<path fill="#222222" opacity="1.000000" stroke="none" 
	d="
M131.988953,66.013016 
	C116.065430,66.657219 100.580292,68.018036 85.101807,66.146034 
	C82.190781,65.793968 79.507919,66.850166 76.745598,66.883308 
	C71.175453,66.950111 65.670578,66.324783 60.007256,66.697350 
	C53.005146,67.157997 48.034451,59.539562 49.031975,51.892391 
	C50.022350,44.300022 56.378803,40.704586 64.065132,40.945297 
	C74.468513,41.271095 85.440758,44.510513 95.182350,37.612007 
	C95.913292,37.094391 97.078171,37.033646 98.042984,37.027668 
	C103.950027,36.991070 109.848854,38.197239 115.770943,37.031979 
	C117.284729,36.734116 118.611404,37.348106 119.893456,38.349285 
	C124.198242,41.710968 129.179581,42.179779 134.391235,41.358185 
	C134.717194,41.306797 135.040466,41.101349 135.353378,41.124504 
	C142.031738,41.618690 148.226730,41.514103 154.316986,37.233086 
	C158.335342,34.408459 163.295868,36.661102 166.418625,40.813004 
	C168.433746,43.492210 170.442642,44.396252 173.492233,42.304935 
	C176.284515,40.390072 179.514252,40.762897 182.665878,41.379257 
	C187.606552,42.345493 192.535965,42.387356 197.477478,41.348999 
	C198.604675,41.112141 199.790268,40.957695 200.933823,41.024586 
	C211.405304,41.637165 221.805481,40.900490 232.269257,40.381485 
	C243.872238,39.805977 250.727066,46.248978 247.888092,59.531364 
	C246.847672,64.399002 243.256638,66.975998 236.298187,66.885773 
	C222.852539,66.711426 209.369827,68.109428 195.953888,66.069374 
	C191.805191,65.438515 187.650528,67.094650 183.607498,66.849075 
	C174.602524,66.302078 165.317337,67.696922 156.763763,66.387947 
	C148.407043,65.109085 140.418365,68.613609 131.988953,66.013016 
z"/>
<path fill="#89D3FC" opacity="1.000000" stroke="none" 
	d="
M177.026489,152.124298 
	C184.114548,138.839340 191.456085,125.876808 198.821548,112.927910 
	C201.662735,107.932968 201.686920,107.966064 196.052109,107.796288 
	C191.236832,107.651215 186.422546,107.318596 181.608810,107.336403 
	C178.908951,107.346397 178.271286,106.518013 178.690674,103.839134 
	C180.254471,93.850296 181.577560,83.823784 183.098434,73.404312 
	C186.233932,72.385101 188.257874,74.260666 190.249481,75.987114 
	C200.147736,84.567520 204.684601,95.650963 205.327820,108.543228 
	C205.835785,118.724899 204.512131,128.565598 199.125198,137.398987 
	C194.727798,144.609787 189.371490,150.935211 180.110260,152.949768 
	C178.861923,152.951233 178.036438,152.888199 177.026489,152.124298 
z"/>
<path fill="#FAF6EA" opacity="1.000000" stroke="none" 
	d="
M179.692596,152.461731 
	C189.993332,149.052643 196.343506,141.790085 200.134338,132.399918 
	C206.126312,117.557434 205.828064,102.659172 198.551086,88.232445 
	C195.278091,81.743614 190.466553,76.539970 183.511688,73.128479 
	C183.125946,70.024940 185.401672,71.084366 186.770691,71.094841 
	C199.390869,71.191376 209.894791,80.700249 210.955887,93.724823 
	C211.846680,104.658775 211.863907,115.696785 210.950211,126.627785 
	C209.690033,141.703522 196.963699,152.911652 180.467697,153.846313 
	C179.686066,153.540802 179.517883,153.179916 179.692596,152.461731 
z"/>
<path fill="#89D3FC" opacity="1.000000" stroke="none" 
	d="
M168.551331,71.325134 
	C170.561508,71.179787 172.198853,71.179787 174.597733,71.179787 
	C165.192245,90.496429 155.972534,109.431541 146.487122,128.635376 
	C141.629318,124.141151 141.820557,117.842072 141.870667,112.120316 
	C141.972870,100.455048 145.134857,89.468369 152.740662,80.229958 
	C156.729721,75.384628 161.349747,71.420692 168.551331,71.325134 
z"/>
<path fill="#F4F0E4" opacity="1.000000" stroke="none" 
	d="
M168.475616,71.119446 
	C153.406418,76.097397 147.170639,88.264427 144.057709,102.920059 
	C142.219299,111.575310 143.352417,119.975197 146.087830,128.592804 
	C146.278656,129.414337 146.335922,129.924561 146.676605,130.699356 
	C147.953537,131.865616 148.766434,132.897781 149.378876,134.101959 
	C153.022568,141.265976 158.395950,146.758484 165.603699,150.946136 
	C166.247849,153.688492 164.961761,154.011734 162.924042,153.823471 
	C150.142609,152.642532 139.274475,142.051682 138.648941,128.901505 
	C138.089935,117.149437 138.127640,105.312798 138.843414,93.570862 
	C139.690659,79.672516 149.520065,71.167870 163.545609,71.014580 
	C165.039093,70.998253 166.533249,71.042793 168.475616,71.119446 
z"/>
<path fill="#87D2FC" opacity="1.000000" stroke="none" 
	d="
M267.308350,197.096130 
	C259.891479,195.914612 259.756073,195.765961 259.752380,189.015152 
	C259.748230,181.372818 259.912354,173.725815 259.688660,166.090057 
	C259.569550,162.024429 261.883362,161.994537 264.787109,162.062012 
	C267.544830,162.126068 270.466034,161.797424 269.944061,165.979523 
	C269.448395,169.950974 270.051697,172.034592 275.090973,172.372223 
	C281.699921,172.815018 284.892883,181.148834 282.494324,189.606262 
	C280.756104,195.735321 277.584045,197.353882 267.308350,197.096130 
z"/>
<path fill="#87D1FA" opacity="1.000000" stroke="none" 
	d="
M291.289368,181.316315 
	C289.195343,179.730774 285.155945,180.411530 285.610016,177.156525 
	C286.063934,173.902603 289.422150,172.788895 292.434052,172.174866 
	C302.466888,170.129486 307.369568,174.090302 307.500519,184.251434 
	C307.513397,185.248795 307.503662,186.246429 307.503754,187.243942 
	C307.504700,196.621765 307.101898,197.043411 297.848694,197.190964 
	C296.187164,197.217468 294.521759,197.223297 292.862854,197.141907 
	C289.198792,196.962112 285.693787,196.290283 285.015656,191.867767 
	C284.332764,187.414612 284.966339,183.453873 290.652283,182.055237 
	C291.839813,181.361282 292.863159,181.452148 293.781311,181.141586 
	C293.031921,181.067337 292.357544,181.552216 291.289368,181.316315 
z"/>
<path fill="#8AD4FD" opacity="1.000000" stroke="none" 
	d="
M165.894424,150.825378 
	C155.986465,148.129242 151.001160,140.404953 147.009766,131.323029 
	C154.172134,130.963928 161.384232,130.963928 168.808945,130.963928 
	C167.831772,137.740814 166.919083,144.070419 165.894424,150.825378 
z"/>
<path fill="#87D2FC" opacity="1.000000" stroke="none" 
	d="
M310.011841,191.732910 
	C310.011658,187.613235 310.003113,183.963516 310.013519,180.313873 
	C310.029724,174.635300 311.064331,173.514252 316.854584,172.962067 
	C318.174042,172.836212 319.509033,172.734970 320.829529,172.791992 
	C322.631104,172.869766 325.370514,171.870590 325.063538,175.186981 
	C324.863312,177.350037 327.025269,180.976669 322.287445,181.111557 
	C320.371613,181.166122 320.324951,182.532196 320.313416,183.898254 
	C320.290985,186.552383 320.252869,189.207901 320.312653,191.860779 
	C320.375580,194.654938 320.559753,197.288559 316.374298,196.955383 
	C313.117584,196.696167 309.214172,197.724167 310.011841,191.732910 
z"/>
<path fill="#2E3A42" opacity="1.000000" stroke="none" 
	d="
M290.970276,181.356644 
	C291.302948,181.130707 291.630646,181.058456 291.960144,181.049118 
	C293.704742,180.999619 294.463715,177.947952 296.638092,179.469437 
	C297.003296,179.724991 297.209351,180.950363 296.950012,181.232819 
	C295.514709,182.796188 293.562531,181.736938 291.416931,181.958023 
	C290.984680,181.904465 290.966125,181.539368 290.970276,181.356644 
z"/>
<path fill="#C6C7C1" opacity="1.000000" stroke="none" 
	d="
M179.475372,152.145142 
	C179.913177,152.547394 179.964539,152.904053 180.035339,153.531372 
	C178.516144,153.939270 176.909378,154.709183 175.760834,153.076447 
	C176.288757,152.711899 176.543289,152.522003 176.836792,152.043884 
	C176.923828,151.820084 176.835373,151.862000 176.799408,151.829208 
	C177.538605,151.897461 178.313766,151.998505 179.475372,152.145142 
z"/>
<path fill="#89D3FC" opacity="1.000000" stroke="none" 
	d="
M176.657471,151.850922 
	C176.766388,152.102371 176.608948,152.384659 176.218842,152.752151 
	C176.121155,152.518829 176.256134,152.200287 176.657471,151.850922 
z"/>
<path fill="#F8F2E6" opacity="1.000000" stroke="none" 
	d="
M584.271423,85.610916 
	C582.699219,87.140068 581.869629,88.509987 582.104614,90.508881 
	C582.278931,91.991158 582.761292,93.981613 579.993042,94.002434 
	C577.311584,94.022598 577.773010,92.177917 577.677490,90.578674 
	C577.649658,90.113060 577.550171,89.651718 577.162964,88.951332 
	C576.826477,93.718559 570.569885,93.231506 569.744751,97.807495 
	C569.638367,98.397812 566.093506,99.414047 565.925903,96.312195 
	C565.729187,92.670425 565.881592,89.009819 565.881409,85.357384 
	C565.881348,84.039314 566.337280,83.128822 567.819580,82.998314 
	C570.417542,82.769562 573.169617,81.816689 575.282288,84.179138 
	C575.985046,84.964943 576.276245,86.118729 577.028625,87.665794 
	C578.049866,82.999176 580.246460,81.410828 584.137634,84.376846 
	C584.255737,84.984779 584.423096,85.184723 584.271423,85.610916 
z"/>
<path fill="#F4EFE2" opacity="1.000000" stroke="none" 
	d="
M495.474915,114.672768 
	C494.391876,112.120811 494.285522,109.979431 496.301483,108.468216 
	C498.741425,106.639214 501.613922,106.633545 504.284210,107.904457 
	C506.628296,109.020096 506.762665,111.125214 506.027771,113.421120 
	C505.850159,113.976006 506.012756,114.688637 506.164154,115.292328 
	C507.509369,120.656517 505.734589,122.912964 500.256226,122.757568 
	C494.922241,122.606262 493.409760,120.183167 495.474915,114.672768 
z"/>
<path fill="#EFE9DD" opacity="1.000000" stroke="none" 
	d="
M508.497040,118.186546 
	C508.345184,115.986160 508.115417,114.132858 508.376984,112.351700 
	C508.924500,108.623528 511.317627,106.936882 515.026489,107.144974 
	C518.780151,107.355576 520.881653,109.316551 520.860107,113.150482 
	C520.839172,116.868286 521.837280,121.231583 516.572937,122.443886 
	C513.026245,123.260643 509.901611,122.683479 508.497040,118.186546 
z"/>
<path fill="#F2EDE1" opacity="1.000000" stroke="none" 
	d="
M532.245850,121.776520 
	C530.886841,122.089874 529.738525,122.148575 528.315186,122.094711 
	C526.851868,119.867493 527.957214,117.563148 527.486755,115.802605 
	C527.445068,117.348938 527.548462,119.311195 527.191528,121.625778 
	C525.006409,122.188034 522.091919,123.722694 522.434570,119.907005 
	C522.703796,116.909172 520.006592,112.368279 525.434631,111.360893 
	C528.304565,110.828255 531.408020,110.828758 534.296326,111.284325 
	C539.051941,112.034454 537.698853,116.087173 538.047302,119.223251 
	C538.361267,122.048714 537.039978,122.733948 534.279541,122.180817 
	C533.116333,121.166153 532.950256,120.099144 533.067566,118.806488 
	C532.877319,119.813805 533.020142,120.750099 532.245850,121.776520 
z"/>
<path fill="#F0EADE" opacity="1.000000" stroke="none" 
	d="
M544.068237,127.221214 
	C541.483704,126.536919 537.672791,126.812126 541.430542,122.939003 
	C542.495728,121.841118 540.826782,121.401711 540.353699,120.686203 
	C538.729370,118.229370 538.552429,115.577599 540.120422,113.170959 
	C541.859680,110.501495 544.702393,110.907265 547.374756,111.393059 
	C548.004028,111.507446 548.925476,111.786346 549.119629,112.242119 
	C550.675110,115.893517 550.074951,119.710564 549.541992,123.439529 
	C549.155579,126.143272 547.160156,127.286156 544.068237,127.221214 
z"/>
<path fill="#F1EBDF" opacity="1.000000" stroke="none" 
	d="
M533.710144,89.686340 
	C535.745361,92.254997 536.058533,94.062469 532.162598,94.001366 
	C531.000000,93.983124 529.818420,94.130203 528.678223,93.969429 
	C526.852173,93.711929 524.167908,95.121208 523.443176,92.544174 
	C522.687500,89.857216 524.328247,87.823219 526.899109,86.657349 
	C527.462646,86.401787 527.899902,85.867813 528.321838,85.522240 
	C527.566650,83.297997 522.649170,85.094215 524.259460,81.289734 
	C525.456238,78.462166 528.401184,78.316170 531.161316,78.765221 
	C534.071228,79.238640 535.471558,81.011032 535.368164,83.968063 
	C535.312195,85.566071 534.654968,86.841690 533.103210,88.015823 
	C533.300842,90.553871 531.366272,88.914215 530.708679,89.538094 
	C531.640198,89.625465 532.519592,89.420975 533.710144,89.686340 
z"/>
<path fill="#F4EFE2" opacity="1.000000" stroke="none" 
	d="
M559.301941,83.023262 
	C562.325867,87.404671 561.435913,91.966354 560.109192,96.259613 
	C559.281372,98.938133 554.043213,99.435509 551.827454,97.493073 
	C551.580750,97.276787 551.151611,96.834793 551.179199,96.800964 
	C554.326294,92.941406 548.884644,89.472961 550.744141,85.569145 
	C552.627747,81.614746 555.852600,82.776596 559.301941,83.023262 
z"/>
<path fill="#F4EFE2" opacity="1.000000" stroke="none" 
	d="
M539.795166,93.454681 
	C535.282776,88.846115 535.796753,80.509422 540.373474,79.000298 
	C543.028748,78.124756 545.997925,78.091278 547.703064,80.353416 
	C550.160400,83.613335 549.733765,87.773407 548.315674,91.219177 
	C546.901184,94.656181 543.378540,94.506958 539.795166,93.454681 
z"/>
<path fill="#ECE7DB" opacity="1.000000" stroke="none" 
	d="
M623.254028,118.640991 
	C623.175598,122.266640 621.337341,122.831276 618.345215,122.117279 
	C616.838623,119.911079 617.982422,117.592514 617.408936,115.672058 
	C617.549255,117.401306 617.514832,119.348877 617.108521,121.596222 
	C615.139648,122.269737 612.639526,123.433258 612.293335,121.104744 
	C611.864197,118.217857 610.751892,114.629295 613.061951,112.230156 
	C614.738159,110.489311 617.591797,110.649925 620.036438,111.599998 
	C621.389160,112.125725 622.010742,113.242073 622.601257,114.835922 
	C623.862854,115.996284 624.005249,117.067101 623.254028,118.640991 
z"/>
<path fill="#F1EBDF" opacity="1.000000" stroke="none" 
	d="
M629.159058,92.673187 
	C627.537903,94.387283 625.938599,94.160797 624.111572,93.343826 
	C622.121948,90.728645 622.474976,88.222252 623.550293,85.294716 
	C626.495483,81.569534 630.133545,81.697800 632.890808,83.793480 
	C635.768127,85.980400 634.965027,89.907341 634.191406,93.050896 
	C633.755188,94.823204 631.704407,93.905228 630.079468,93.346634 
	C629.012756,91.480927 630.076965,89.580719 629.749939,89.060928 
	C630.020081,89.414497 629.288391,90.942383 629.159058,92.673187 
z"/>
<path fill="#F0EADE" opacity="1.000000" stroke="none" 
	d="
M566.401733,115.192474 
	C565.271179,112.105865 567.546082,111.683640 569.158630,111.295860 
	C571.266846,110.788918 573.578308,110.793236 575.007751,112.887482 
	C576.733826,115.416351 576.588318,118.558304 575.708984,121.032684 
	C574.856995,123.430077 571.778381,122.823219 569.540771,122.684700 
	C568.136475,122.597778 566.475037,122.588493 565.677734,120.446495 
	C564.660339,118.356651 565.588074,116.956779 566.401733,115.192474 
z"/>
<path fill="#F1EBDF" opacity="1.000000" stroke="none" 
	d="
M627.051636,150.153168 
	C620.287231,152.240952 617.797302,150.920715 617.706970,145.660660 
	C617.667480,143.360794 617.950500,141.186554 620.390198,140.304565 
	C622.648010,139.488342 625.114075,139.330627 626.952454,141.192596 
	C628.641541,142.903397 629.958801,144.886200 627.252930,147.062653 
	C626.322815,147.810791 628.742493,148.896988 627.051636,150.153168 
z"/>
<path fill="#EFE9DD" opacity="1.000000" stroke="none" 
	d="
M575.051514,146.512741 
	C573.705811,150.734482 572.708740,151.513336 569.323608,151.295990 
	C564.611450,150.993423 564.533264,147.569748 564.183472,143.840271 
	C566.839233,139.695953 570.167603,138.298523 574.658813,141.782074 
	C576.139771,143.310883 576.281555,144.707687 575.051514,146.512741 
z"/>
<path fill="#F1EBDF" opacity="1.000000" stroke="none" 
	d="
M603.559448,118.877808 
	C604.309387,123.298019 601.044861,122.606384 598.877930,122.645226 
	C596.113342,122.694763 594.230164,121.154846 593.922485,118.145920 
	C593.610657,115.095177 594.083740,112.468246 597.447327,111.363518 
	C601.785095,109.938789 604.769165,112.548744 604.333984,117.826744 
	C602.666809,118.833031 601.338806,118.381264 600.313354,118.350700 
	C600.944824,118.974167 602.221802,118.278206 603.559448,118.877808 
z"/>
<path fill="#EFE9DD" opacity="1.000000" stroke="none" 
	d="
M576.914856,141.289886 
	C579.764343,139.622589 582.396301,139.180679 585.456665,140.945969 
	C588.218140,143.449280 588.968079,146.133194 587.098511,149.578033 
	C581.227295,152.509933 578.048645,151.861832 576.219971,147.382339 
	C576.511414,145.191711 576.921509,143.368607 576.914856,141.289886 
z"/>
<path fill="#EFE9DD" opacity="1.000000" stroke="none" 
	d="
M632.704834,118.739075 
	C635.128174,120.612419 633.509705,121.637131 632.201294,122.117661 
	C629.010376,123.289597 625.970215,123.235909 623.923340,119.410553 
	C623.341614,117.986359 623.560608,116.850830 623.665161,115.331177 
	C625.267212,110.852516 628.425964,110.259109 631.836060,111.709709 
	C634.409668,112.804451 636.036255,114.967941 633.444885,118.044868 
	C631.577087,118.759445 630.017090,118.461853 628.579407,118.366386 
	C629.743042,118.678581 631.057312,118.427078 632.704834,118.739075 
z"/>
<path fill="#F2EDE1" opacity="1.000000" stroke="none" 
	d="
M584.352661,85.934814 
	C583.966248,85.660690 583.980164,85.484230 584.041199,85.046310 
	C585.980225,86.371689 585.996460,83.825417 587.007019,83.441856 
	C589.756165,82.398415 592.693665,81.804352 594.813049,84.139374 
	C596.857117,86.391396 596.589722,89.471901 595.154297,92.009674 
	C593.711731,94.560074 590.962891,94.544472 588.536865,93.835770 
	C584.592590,92.683540 585.362976,88.961838 584.352661,85.934814 
z"/>
<path fill="#E6E1D6" opacity="1.000000" stroke="none" 
	d="
M586.264832,114.380325 
	C582.482422,114.167320 582.921570,116.670982 582.940857,118.818153 
	C582.957520,120.681923 583.234680,122.589249 580.329163,122.437828 
	C577.685120,122.300034 577.880615,120.362823 578.235046,118.878082 
	C578.910278,116.049355 575.551331,113.676262 577.966675,110.449020 
	C579.500610,108.399506 580.668945,106.530937 583.268555,107.034439 
	C586.604004,107.680466 583.452087,109.939079 584.064148,111.303009 
	C584.227356,111.666733 584.838501,111.829445 585.629639,112.064026 
	C586.589966,112.627739 586.694153,113.321655 586.264832,114.380325 
z"/>
<path fill="#F4F0E4" opacity="1.000000" stroke="none" 
	d="
M605.604675,86.337112 
	C608.642883,82.002182 610.960083,81.626358 615.965576,84.645477 
	C617.157043,86.051331 617.058228,87.272026 616.275879,88.816116 
	C615.627808,89.386734 615.152649,89.449577 614.658691,89.485374 
	C613.994263,89.533531 614.804138,89.162018 614.192871,89.425331 
	C614.010986,89.503662 614.205383,89.635162 614.953979,89.684593 
	C615.804077,90.156174 616.107605,90.704437 616.133728,91.683182 
	C611.418091,95.306534 609.098450,95.018120 605.911255,90.401672 
	C605.033813,89.012985 604.915222,87.898811 605.604675,86.337112 
z"/>
<path fill="#F9F4E7" opacity="1.000000" stroke="none" 
	d="
M611.698242,141.193130 
	C614.993530,138.903778 616.152344,139.861404 616.232788,143.427460 
	C616.393616,150.549057 614.876648,152.371750 609.450684,151.133255 
	C605.319336,150.190292 606.073059,146.909134 605.953674,144.026810 
	C605.863770,141.855835 605.518188,139.490784 609.417358,140.074677 
	C610.374939,140.453720 610.525024,141.041794 610.791687,141.572327 
	C610.903442,141.794815 610.547119,142.345551 611.129578,142.215652 
	C611.257751,142.187057 611.325195,141.687485 611.698242,141.193130 
z"/>
<path fill="#ECE7DB" opacity="1.000000" stroke="none" 
	d="
M599.690796,136.771500 
	C601.421631,135.701263 603.423523,134.641312 604.421265,136.128723 
	C605.631165,137.932510 605.199646,141.310516 604.517029,142.477188 
	C603.228699,144.678986 603.085022,146.682709 603.051636,148.910660 
	C603.031006,150.297363 602.587891,151.090195 601.060181,151.036880 
	C599.879150,150.995697 598.443359,151.093613 598.538269,149.472641 
	C598.781006,145.327576 595.681396,140.926849 599.690796,136.771500 
z"/>
<path fill="#ECE7DB" opacity="1.000000" stroke="none" 
	d="
M565.403931,119.806580 
	C564.878662,120.475296 564.317810,120.776482 563.818481,121.158066 
	C560.972168,123.333199 558.019226,123.614525 555.416382,121.021271 
	C553.345154,118.957649 553.924927,113.523697 556.316711,112.124985 
	C559.619446,110.193596 562.603821,110.604294 564.645569,114.615295 
	C564.076050,116.143486 563.084229,116.595161 561.443420,116.823631 
	C563.382996,117.261482 564.921692,117.686745 565.403931,119.806580 
z"/>
<path fill="#EAE5D9" opacity="1.000000" stroke="none" 
	d="
M604.611389,89.799126 
	C604.829468,91.388832 605.384521,92.914932 603.956665,93.703796 
	C602.448181,94.537155 600.702698,93.668617 599.872864,92.657364 
	C597.762268,90.085312 597.152588,86.731583 597.277344,83.554520 
	C597.322083,82.414986 597.991882,79.723122 600.629517,80.082855 
	C603.586853,80.486176 603.935547,83.072868 604.800903,85.563210 
	C604.486206,87.114098 604.394592,88.300476 604.611389,89.799126 
z"/>
<path fill="#E6E1D6" opacity="1.000000" stroke="none" 
	d="
M587.607788,141.381607 
	C587.870850,139.811981 587.970581,138.652390 587.956909,137.494156 
	C587.939209,135.995041 588.735840,135.416168 590.110107,135.409073 
	C591.537231,135.401703 592.832458,135.616119 592.840515,137.468552 
	C592.857178,141.286209 593.024536,145.114380 592.798584,148.918549 
	C592.601562,152.235870 590.139404,150.912827 588.080933,150.363754 
	C587.341370,147.299881 587.384949,144.545105 587.607788,141.381607 
z"/>
<path fill="#F9F4E7" opacity="1.000000" stroke="none" 
	d="
M586.277527,115.030937 
	C586.048401,114.015709 586.059021,113.357811 586.042480,112.371765 
	C586.578918,110.861671 586.993164,109.573212 587.741760,108.523132 
	C588.817932,107.013496 590.620239,106.567207 592.194214,107.190491 
	C593.880005,107.858086 592.232483,109.689529 592.541443,110.348793 
	C594.316895,114.136765 590.114319,116.935028 591.197510,120.564766 
	C591.647522,122.072716 590.190552,122.310783 588.923828,122.325356 
	C587.526306,122.341415 586.782654,121.842949 586.774109,120.333008 
	C586.764771,118.684326 586.609131,117.036469 586.277527,115.030937 
z"/>
<path fill="#FCF6EA" opacity="1.000000" stroke="none" 
	d="
M632.041992,150.991028 
	C628.326416,150.335205 630.083801,147.775711 629.901123,146.131744 
	C629.591797,143.348083 629.844360,140.504242 629.815796,137.686157 
	C629.801575,136.284744 630.330627,135.479187 631.824524,135.506729 
	C632.820923,135.525101 634.144836,135.452393 634.131653,136.742981 
	C634.083191,141.460449 635.190430,146.244431 633.460327,150.871399 
	C633.408508,151.009949 632.841736,150.955978 632.041992,150.991028 
z"/>
<path fill="#ECE7DB" opacity="1.000000" stroke="none" 
	d="
M563.934998,143.100861 
	C563.977295,143.526337 564.002258,143.450378 564.024048,143.415985 
	C561.485413,144.076111 561.561707,146.098236 561.690796,148.117172 
	C561.820435,150.144440 561.132080,151.144455 558.876709,151.073883 
	C556.418884,150.996964 556.797424,149.296188 556.939880,147.951477 
	C557.262451,144.909225 555.052490,140.571182 560.773804,140.066956 
	C562.830872,139.885666 563.991577,140.441299 563.934998,143.100861 
z"/>
<path fill="#E4DED3" opacity="1.000000" stroke="none" 
	d="
M605.943481,116.090889 
	C606.217346,113.888306 605.029480,111.179878 608.282654,111.213638 
	C611.416138,111.246147 610.471436,113.866837 610.665283,115.689171 
	C610.700073,116.016670 610.762817,116.384613 610.656250,116.676804 
	C609.940369,118.638992 612.525513,122.431778 608.190796,122.317116 
	C603.916260,122.204056 606.839233,118.442802 605.943481,116.090889 
z"/>
<path fill="#F9F4E7" opacity="1.000000" stroke="none" 
	d="
M617.645874,84.409851 
	C617.812866,83.973106 617.961426,83.564568 618.021606,83.355698 
	C618.704468,82.435516 619.497192,82.116409 620.868591,82.216110 
	C621.557190,82.458534 621.810242,82.612617 622.252930,83.168587 
	C622.973083,86.789284 623.507080,90.008095 622.105713,93.551559 
	C620.624390,93.797058 619.439941,93.711121 618.056519,93.323807 
	C616.358398,90.360756 616.825317,87.608002 617.645874,84.409851 
z"/>
<path fill="#484745" opacity="1.000000" stroke="none" 
	d="
M565.445496,120.139694 
	C564.481995,118.147903 562.620300,117.702980 560.899658,118.220329 
	C559.153320,118.745422 558.994629,118.193787 558.975647,116.788513 
	C558.946289,114.617889 560.083252,115.732170 561.104797,115.838638 
	C561.996582,115.931564 562.948303,115.448990 564.256348,115.119293 
	C565.038452,114.974998 565.437683,114.932083 566.137817,114.872574 
	C567.174500,114.971176 568.389038,115.001564 567.316772,116.086288 
	C566.354187,117.060059 565.674133,117.999573 565.599365,119.730652 
	C565.521667,120.087379 565.479919,120.142418 565.445496,120.139694 
z"/>
<path fill="#F0EADE" opacity="1.000000" stroke="none" 
	d="
M640.341675,91.185944 
	C640.434937,93.386765 639.654663,94.253822 637.752258,94.045990 
	C636.597961,93.919884 635.978149,93.380959 635.958191,92.229881 
	C635.938965,91.124046 635.666260,89.795059 637.001465,89.294090 
	C638.476562,88.740601 639.911133,88.765472 640.341675,91.185944 
z"/>
<path fill="#EAE5D9" opacity="1.000000" stroke="none" 
	d="
M640.373291,119.940674 
	C640.201233,123.005745 638.474731,123.153191 636.684937,122.183327 
	C635.367249,121.469299 635.490112,119.532272 636.276611,118.767616 
	C637.630798,117.451126 639.419312,117.157684 640.373291,119.940674 
z"/>
<path fill="#E4DED3" opacity="1.000000" stroke="none" 
	d="
M622.024658,82.979874 
	C621.483459,83.035461 621.516174,83.002151 621.519897,83.025223 
	C620.581665,82.470016 619.469910,82.553421 618.427795,81.860809 
	C617.762329,80.244507 617.240784,78.888512 618.831665,78.148827 
	C619.795593,77.700623 621.128967,77.577988 622.026917,78.550446 
	C623.231934,79.855499 622.304749,80.928612 621.482361,82.381927 
	C621.845520,82.838753 622.205627,82.881531 622.024658,82.979874 
z"/>
<path fill="#5D5C59" opacity="1.000000" stroke="none" 
	d="
M621.731506,83.423630 
	C621.483459,83.035461 621.449890,82.914551 621.467651,82.855278 
	C622.419800,82.901672 622.886047,83.564583 623.566284,84.610085 
	C623.910583,87.321922 623.973511,89.731445 623.981018,92.589462 
	C623.409302,93.285904 622.893005,93.533852 622.092773,93.832397 
	C622.399963,90.534981 622.224792,87.173988 621.731506,83.423630 
z"/>
<path fill="#514F4D" opacity="1.000000" stroke="none" 
	d="
M617.595947,84.075806 
	C617.878540,86.691162 617.944153,89.409225 617.933716,92.574860 
	C617.412170,92.740044 616.966736,92.457649 616.270386,92.091888 
	C615.711304,91.579308 615.403015,91.150101 614.907715,90.517960 
	C614.619995,90.077126 614.519409,89.839226 614.746704,89.394928 
	C616.832275,88.483360 616.444519,87.100243 616.161499,85.342728 
	C616.567627,84.683075 616.973328,84.430794 617.595947,84.075806 
z"/>
<path fill="#FCF6EA" opacity="1.000000" stroke="none" 
	d="
M635.969971,148.921295 
	C636.471008,145.948547 638.341614,146.365021 639.651184,147.220276 
	C640.796692,147.968338 640.785034,149.870178 639.657715,150.621094 
	C638.335510,151.501831 636.488098,151.859451 635.969971,148.921295 
z"/>
<path fill="#E6E1D6" opacity="1.000000" stroke="none" 
	d="
M607.881775,106.940254 
	C609.790405,106.955055 611.265015,107.403084 610.438904,109.171768 
	C609.679932,110.796745 607.700623,110.632500 606.585266,109.734802 
	C605.326599,108.721642 605.653992,107.409630 607.881775,106.940254 
z"/>
<path fill="#514F4D" opacity="1.000000" stroke="none" 
	d="
M576.876648,141.174545 
	C576.790466,142.902557 580.085388,145.064087 576.411316,146.801178 
	C575.931274,146.985809 575.685242,146.950195 575.070251,146.860687 
	C574.785645,145.484390 574.869995,144.161972 574.944092,142.436279 
	C575.483521,141.774094 576.033081,141.515182 576.876648,141.174545 
z"/>
<path fill="#5D5C59" opacity="1.000000" stroke="none" 
	d="
M611.640503,140.849106 
	C611.904907,142.891144 611.904907,144.828995 611.904907,147.231567 
	C609.093567,145.387115 610.688416,142.844543 609.928223,140.520630 
	C610.351318,140.315628 610.863708,140.530289 611.640503,140.849106 
z"/>
<path fill="#85827C" opacity="1.000000" stroke="none" 
	d="
M532.355957,122.064644 
	C532.035095,119.913910 532.035095,117.796654 532.035095,115.111092 
	C534.950134,116.996246 533.504883,119.347862 533.950928,121.616943 
	C533.535095,122.053978 533.105957,122.076050 532.355957,122.064644 
z"/>
<path fill="#403F3D" opacity="1.000000" stroke="none" 
	d="
M587.485718,140.985901 
	C587.882629,143.690247 587.943726,146.409515 587.927979,149.576355 
	C587.669312,150.012558 587.487427,150.001205 587.037231,149.937622 
	C586.502747,147.214325 586.236633,144.543243 585.889526,141.483124 
	C586.255676,141.063004 586.702820,141.031921 587.485718,140.985901 
z"/>
<path fill="#484745" opacity="1.000000" stroke="none" 
	d="
M604.944641,90.096741 
	C602.143799,89.080383 602.309570,87.689018 604.427612,86.004684 
	C604.944031,85.934677 605.123840,85.931351 605.572754,85.946861 
	C605.870056,87.053749 605.898315,88.141800 605.869080,89.634560 
	C605.619324,90.058403 605.426941,90.077538 604.944641,90.096741 
z"/>
<path fill="#484745" opacity="1.000000" stroke="none" 
	d="
M617.116577,121.925415 
	C616.963501,119.830635 616.324585,117.694748 617.362793,115.501877 
	C618.593140,117.396202 617.782410,119.338394 618.041382,121.567451 
	C617.838562,121.976448 617.631958,121.965874 617.116577,121.925415 
z"/>
<path fill="#403F3D" opacity="1.000000" stroke="none" 
	d="
M527.227722,121.980713 
	C526.956909,119.902611 526.956909,117.824486 526.956909,114.758003 
	C528.560364,117.438385 527.796936,119.349525 528.039185,121.562515 
	C527.859619,121.981651 527.679077,121.981163 527.227722,121.980713 
z"/>
<path fill="#403F3D" opacity="1.000000" stroke="none" 
	d="
M629.136230,92.996658 
	C628.944458,91.105408 628.269470,89.161942 629.431274,87.269073 
	C630.382324,88.921959 629.798157,90.589287 629.903564,92.602005 
	C629.855591,93.022865 629.375427,93.017899 629.136230,92.996658 
z"/>
<path fill="#85827C" opacity="1.000000" stroke="none" 
	d="
M603.833862,118.866867 
	C602.287048,119.076057 600.751892,118.995560 598.903381,118.898628 
	C600.363525,117.337410 601.914185,118.494003 603.596008,117.992599 
	C603.961365,118.208382 603.903442,118.392784 603.833862,118.866867 
z"/>
<path fill="#484745" opacity="1.000000" stroke="none" 
	d="
M533.769348,89.390305 
	C532.563049,89.816826 531.094910,89.816826 529.572510,89.816826 
	C529.875427,88.343376 531.451843,89.018318 532.501221,88.261658 
	C533.053711,88.474403 533.280579,88.719093 533.769348,89.390305 
z"/>
<path fill="#85827C" opacity="1.000000" stroke="none" 
	d="
M633.043213,118.726974 
	C631.693115,118.986389 630.326294,119.047981 628.326172,119.138100 
	C629.762268,117.337677 631.212402,118.431961 632.704590,118.105209 
	C633.099670,118.138885 633.026428,118.529144 633.043213,118.726974 
z"/>
<path fill="#5D5C59" opacity="1.000000" stroke="none" 
	d="
M623.537476,114.939178 
	C623.844177,116.032700 623.900818,117.138016 623.888245,118.653702 
	C623.819092,119.064072 623.411865,119.053291 623.209717,119.028564 
	C622.905762,117.968323 622.803894,116.932808 622.759216,115.509338 
	C622.973389,115.064575 623.130371,115.007767 623.537476,114.939178 
z"/>
<path fill="#514F4D" opacity="1.000000" stroke="none" 
	d="
M618.294922,81.877533 
	C619.479919,81.700523 620.558960,81.940025 621.580811,82.613907 
	C620.662903,83.062515 619.802307,83.076729 618.511719,83.118889 
	C618.117493,82.862572 618.153259,82.578300 618.294922,81.877533 
z"/>
<path fill="#2C2B2B" opacity="1.000000" stroke="none" 
	d="
M332.814087,113.980881 
	C332.834991,109.833183 332.801544,106.176895 332.904053,102.524422 
	C332.943970,101.102753 332.744629,99.284050 334.871552,99.091957 
	C336.650848,98.931267 337.646698,100.157425 338.069031,101.680473 
	C340.098206,108.997803 340.351227,116.353134 338.186676,123.693230 
	C337.721863,125.269432 336.646942,126.274475 334.841858,125.981888 
	C333.097168,125.699066 332.995605,124.276695 332.952972,122.942886 
	C332.862823,120.121262 332.855408,117.296997 332.814087,113.980881 
z"/>
<path fill="#323030" opacity="1.000000" stroke="none" 
	d="
M97.615387,94.999397 
	C97.529625,97.908173 97.445290,100.420395 96.328125,102.694733 
	C95.466042,104.449768 93.994850,105.573494 91.929596,105.263046 
	C89.386169,104.880730 90.221916,102.819511 90.254440,101.309074 
	C90.347214,97.000366 90.569359,92.694572 90.718796,88.386879 
	C90.771385,86.871071 90.661636,85.267288 92.740372,85.012268 
	C94.521797,84.793716 95.485977,85.925140 96.187386,87.322243 
	C97.331329,89.600769 97.492264,92.089096 97.615387,94.999397 
z"/>
<path fill="#2F2E2D" opacity="1.000000" stroke="none" 
	d="
M89.811913,136.608917 
	C89.877106,132.023987 89.943443,127.896149 90.065750,123.769974 
	C90.102722,122.522621 89.576775,120.887024 91.295013,120.390114 
	C92.897125,119.926796 94.122383,120.871323 95.111237,122.097778 
	C97.210495,124.701416 97.701721,136.244003 95.736580,138.872421 
	C94.841873,140.069122 93.732384,141.152084 92.020889,140.897583 
	C89.711769,140.554245 90.030243,138.649963 89.811913,136.608917 
z"/>
<path fill="#202122" opacity="1.000000" stroke="none" 
	d="
M144.529877,48.285690 
	C146.950836,46.736740 149.101028,45.406498 151.594757,44.038242 
	C154.007202,46.237648 152.948105,48.583267 152.221268,50.949306 
	C150.554337,56.375683 152.565201,58.724350 158.325729,58.123543 
	C158.982132,58.055084 159.647919,57.995056 160.287888,57.853111 
	C161.643539,57.552452 163.634796,58.412903 164.162720,56.539299 
	C164.662186,54.766647 164.240952,52.808659 162.634003,51.603767 
	C159.838562,49.507763 160.656235,47.465569 162.775848,45.161880 
	C166.266998,45.289497 166.977661,50.498222 171.446869,48.999287 
	C173.450287,50.124474 173.037857,51.915642 173.315720,53.481812 
	C174.244308,58.715912 177.294403,59.848907 182.059921,56.733955 
	C182.149994,56.400063 182.109146,56.072674 181.850754,55.854279 
	C180.449677,54.670143 177.446182,55.316055 177.498337,52.591038 
	C177.556931,49.529797 180.589645,51.007786 182.100922,50.077641 
	C182.926895,49.569279 183.803619,49.079807 185.111435,48.774910 
	C187.816879,50.052860 187.017319,52.455887 187.377625,54.468742 
	C187.577972,55.587936 187.543228,57.034641 189.106873,57.004944 
	C190.297501,56.982330 190.452255,55.743828 190.640350,54.773155 
	C190.949554,53.177612 190.884506,51.418839 192.932800,50.363052 
	C193.505264,50.263577 193.740128,50.261845 194.315369,50.354034 
	C196.417587,51.569920 196.009064,53.627769 196.695892,55.213451 
	C197.568802,57.228760 199.186127,58.201420 201.234833,58.364094 
	C203.279449,58.526440 205.191528,58.188335 205.510925,55.216213 
	C205.566010,54.629826 205.619095,54.396862 205.903503,53.885979 
	C206.568130,53.376499 207.031326,53.246960 207.882629,53.243027 
	C208.470596,53.372036 208.695450,53.460964 209.196548,53.781204 
	C209.991119,54.658131 210.291962,55.441906 210.774414,56.105225 
	C212.717789,58.777222 215.446869,59.050388 218.291275,58.210960 
	C221.283417,57.327934 220.659607,54.672501 220.699951,52.420429 
	C220.732895,50.581944 219.902969,48.896126 219.792343,46.748672 
	C220.777664,44.760422 222.085098,44.740906 223.807861,45.817932 
	C224.982361,48.850735 223.973038,51.684929 224.414856,54.448250 
	C224.589828,55.542709 224.516785,57.021431 226.160004,56.940571 
	C227.388214,56.880127 227.431229,55.638245 227.660980,54.694950 
	C227.998123,53.310665 227.805649,51.652287 229.572540,50.946690 
	C232.434296,52.247414 229.925049,57.341770 234.595795,57.588371 
	C235.418076,57.614086 235.889282,57.619827 236.715164,57.612137 
	C239.148651,57.606579 240.446564,56.749702 240.626038,54.520996 
	C240.742020,53.080631 240.745407,51.591927 241.977066,50.171112 
	C246.662292,50.208229 244.868561,53.589703 244.895874,55.632481 
	C244.940445,58.966110 243.301056,61.789356 239.962067,62.774883 
	C237.464432,63.512070 234.855270,63.951935 232.153656,64.082069 
	C222.249115,64.559166 212.250519,64.283714 202.502747,63.525181 
	C194.524216,62.904320 186.857605,62.843613 179.053070,63.986851 
	C178.890289,64.010696 178.683609,64.052200 178.559830,63.979378 
	C172.445755,60.381985 166.168015,63.917561 160.274933,63.464924 
	C151.615494,62.799816 143.013931,62.442360 134.488342,63.245064 
	C124.578445,64.178101 114.747482,62.836117 104.856056,63.167217 
	C98.274902,63.387516 91.530525,63.840656 84.801239,63.499363 
	C77.721909,63.140320 70.411774,62.342403 63.244102,63.760708 
	C56.788929,65.038033 51.166733,59.718342 51.990608,53.312565 
	C52.164505,51.960518 52.584145,51.105019 54.426407,51.017288 
	C55.434723,51.331898 55.746361,51.887955 55.932396,52.534294 
	C57.826694,59.115658 59.775967,59.929016 66.409927,56.614910 
	C67.173767,56.301315 67.632576,56.201485 68.455063,56.186707 
	C72.226784,57.961582 75.641022,59.868427 79.576454,56.522583 
	C80.220963,56.069942 80.587318,55.807167 81.228348,55.338493 
	C81.901451,54.890053 82.334297,54.759907 83.111130,54.868504 
	C88.299690,59.608906 89.280289,59.655113 95.749161,55.513718 
	C96.318024,55.488239 96.546722,55.522747 97.083572,55.716743 
	C98.037460,56.352879 99.010551,57.432457 99.336456,57.125763 
	C102.930496,53.743599 105.986389,57.793827 109.651009,57.699894 
	C110.478897,57.680580 110.954407,57.678196 111.792702,57.673157 
	C114.119591,57.748043 116.037216,57.339546 118.335579,57.130116 
	C122.538445,57.526161 126.447273,59.992794 130.495316,56.612770 
	C131.288086,56.330128 131.760864,56.262802 132.594574,56.327484 
	C134.496201,56.931431 135.856613,57.936581 137.494934,58.274319 
	C141.596069,59.119766 143.380859,57.518162 143.210114,52.747345 
	C143.099869,51.944115 143.099075,51.481258 143.201996,50.674721 
	C143.468628,49.652679 143.799820,49.043701 144.529877,48.285690 
z"/>
<path fill="#84CCF4" opacity="1.000000" stroke="none" 
	d="
M162.886551,44.697388 
	C162.294083,47.408363 160.250015,49.776508 164.557968,51.416161 
	C167.410004,52.501667 162.964447,57.088902 167.851212,58.304043 
	C163.337051,59.403332 159.587936,59.061760 155.924408,59.438671 
	C151.224930,59.922165 148.385696,55.255657 150.887238,51.348614 
	C152.333557,49.089691 152.066711,47.081097 152.010223,44.429043 
	C155.220947,39.438290 158.896896,39.573578 162.886551,44.697388 
z"/>
<path fill="#85CEF7" opacity="1.000000" stroke="none" 
	d="
M235.165207,58.704315 
	C227.416840,60.656349 231.000336,54.262299 229.544815,51.380215 
	C228.381241,53.145779 228.963959,54.957165 228.963547,56.641628 
	C228.963028,58.735237 227.903839,59.094387 226.160034,59.086044 
	C224.472977,59.077980 223.137207,58.841599 223.289307,56.726620 
	C223.524979,53.449703 222.667755,50.114380 223.924469,46.496498 
	C228.112640,46.001511 232.194992,45.963909 236.269821,45.769249 
	C239.044189,45.636715 240.985672,46.646183 242.154572,49.631874 
	C242.237701,51.772152 241.951126,53.576260 242.183914,55.310665 
	C242.655212,58.821968 240.860046,59.457325 237.556183,58.958740 
	C236.552811,58.492886 236.213684,57.951927 236.101242,57.280609 
	C236.011414,56.744457 236.038254,56.195465 235.965454,55.656044 
	C235.986221,56.147163 235.982285,56.638241 235.920685,57.126091 
	C235.858582,57.617863 235.696594,58.075863 235.165207,58.704315 
z"/>
<path fill="#83CAF2" opacity="1.000000" stroke="none" 
	d="
M110.235397,58.699997 
	C107.393982,58.848198 103.921219,60.419682 103.757607,55.331852 
	C102.414307,56.864193 103.059135,59.497643 100.333260,59.103989 
	C98.774307,58.878853 96.806404,59.510944 96.932953,56.412537 
	C94.884750,52.018898 95.237595,47.930584 96.580254,43.403290 
	C96.731850,40.556637 98.041054,39.949154 100.238068,40.180809 
	C102.101517,40.377293 102.813080,41.350094 102.785889,43.102947 
	C102.763252,44.562531 102.781250,46.022739 102.781250,48.760403 
	C104.701736,45.431507 106.961891,45.999996 109.482574,46.010086 
	C110.828514,50.131512 109.389282,54.318977 110.235397,58.699997 
z"/>
<path fill="#80C6EC" opacity="1.000000" stroke="none" 
	d="
M219.431259,46.265141 
	C222.522675,49.516502 221.965515,53.296017 221.676254,56.847847 
	C221.404770,60.181732 218.186783,59.473145 216.159882,59.583153 
	C212.832382,59.763756 209.245132,59.582352 209.075180,54.385468 
	C208.872147,52.682808 210.044525,51.518055 209.395584,49.818703 
	C209.077682,48.226219 209.288940,47.118740 210.749100,46.189026 
	C213.722382,45.860970 216.373062,45.425755 219.431259,46.265141 
z"/>
<path fill="#84CCF4" opacity="1.000000" stroke="none" 
	d="
M96.042923,55.645340 
	C91.673187,60.925560 86.476532,60.880005 82.934776,55.412338 
	C81.744942,53.950722 81.761642,52.515152 81.702103,50.677799 
	C81.796822,48.806931 82.038849,47.422298 83.680176,46.311378 
	C86.746964,46.111404 89.412361,46.050987 92.521393,46.044498 
	C98.117538,47.726620 96.058411,52.016113 96.042923,55.645340 
z"/>
<path fill="#84CCF4" opacity="1.000000" stroke="none" 
	d="
M131.152069,56.627014 
	C126.493202,60.690247 123.089767,60.511402 119.098885,55.921883 
	C118.864510,55.308773 118.699936,55.166981 118.388481,54.733276 
	C117.977943,53.590080 117.973572,52.722202 118.152443,51.529282 
	C118.333992,51.019867 118.438728,50.828697 118.800568,50.435524 
	C119.020966,48.382931 119.018364,46.530930 121.449013,46.148655 
	C125.033234,45.584953 128.649307,44.960884 131.345612,48.965263 
	C133.715698,53.481987 133.192902,54.002480 125.903214,54.840237 
	C127.871925,54.484287 129.920395,53.809586 131.152069,56.627014 
z"/>
<path fill="#84CCF4" opacity="1.000000" stroke="none" 
	d="
M208.137115,53.652874 
	C207.440964,53.952087 207.035614,53.973621 206.330902,54.050842 
	C205.667999,54.362247 205.256271,54.464268 204.819534,54.486572 
	C205.028214,54.626583 205.277161,54.525131 205.752014,54.788902 
	C209.055832,56.503368 207.251038,57.827347 205.672516,58.736305 
	C200.513153,61.707233 195.521255,58.362114 195.139786,51.395714 
	C194.938110,50.102524 194.946716,49.240753 195.719727,48.206287 
	C199.012177,44.420315 202.579529,45.489113 206.551819,47.052353 
	C208.156479,47.475502 208.687027,48.343727 208.960938,49.883301 
	C209.195496,51.385326 209.025162,52.420654 208.137115,53.652874 
z"/>
<path fill="#83CAF2" opacity="1.000000" stroke="none" 
	d="
M185.229279,48.823853 
	C183.854523,50.939156 182.562302,52.559204 179.936172,51.785656 
	C179.148926,51.553768 178.025803,50.707714 178.056778,52.601921 
	C178.075211,53.730202 178.730164,53.889866 179.622314,53.986717 
	C181.539307,54.194817 184.889572,53.347797 184.453674,56.166084 
	C184.038147,58.852833 181.053375,60.068996 177.848404,59.790310 
	C173.981216,59.454044 172.032028,57.793232 172.313599,53.769951 
	C172.404083,52.476997 172.159180,51.160572 171.952866,49.426964 
	C175.529282,44.922745 178.701141,44.634121 184.641022,48.029694 
	C185.145035,48.331131 185.294815,48.469131 185.229279,48.823853 
z"/>
<path fill="#83CAF2" opacity="1.000000" stroke="none" 
	d="
M144.472107,47.877766 
	C144.658798,48.591030 144.516953,49.115070 144.188293,49.848701 
	C143.509491,50.467880 143.471893,50.992310 143.816711,51.764038 
	C145.332581,54.082832 146.041336,56.573101 143.783173,58.117893 
	C140.408829,60.426258 136.725266,60.272774 133.165802,57.283875 
	C132.851639,54.528137 133.032425,52.028503 132.715393,49.269363 
	C134.899994,45.029087 139.556320,44.496731 144.472107,47.877766 
z"/>
<path fill="#85CEF7" opacity="1.000000" stroke="none" 
	d="
M81.163712,56.672340 
	C77.246033,60.216206 73.453720,60.622654 69.240906,57.235004 
	C67.028442,54.406364 67.279984,51.665043 68.661102,48.430099 
	C71.949562,44.495327 75.550018,45.464512 79.566055,47.006561 
	C80.777771,47.358257 81.323036,47.891018 81.794861,49.014965 
	C81.990814,51.216709 82.141975,53.038967 81.608856,55.218628 
	C81.480446,55.854404 81.444633,56.111809 81.163712,56.672340 
z"/>
<path fill="#83CAF2" opacity="1.000000" stroke="none" 
	d="
M67.243393,56.732075 
	C64.199883,60.265587 60.527847,60.090652 57.093021,58.762394 
	C53.992275,57.563324 55.376869,54.270748 54.894260,51.422710 
	C56.601654,44.930676 61.649231,43.794857 67.005714,48.617020 
	C68.007324,53.083935 64.349152,51.389866 62.432522,52.581421 
	C64.529625,53.443607 67.664803,53.012703 67.243393,56.732075 
z"/>
<path fill="#80C6EC" opacity="1.000000" stroke="none" 
	d="
M185.409119,49.208076 
	C185.013947,49.040569 184.998932,48.616974 184.997086,48.405052 
	C187.900070,46.337971 190.826859,44.647499 194.413361,47.343948 
	C194.770477,48.566238 194.869308,49.391933 194.116211,50.480484 
	C190.664001,51.268097 191.968689,53.750202 191.889404,55.434448 
	C191.788467,57.578655 191.820923,59.188786 188.844421,59.169197 
	C185.668701,59.148296 186.105209,57.187122 186.063171,55.235146 
	C186.021088,53.281006 185.894073,51.328693 185.409119,49.208076 
z"/>
<path fill="#87D2FC" opacity="1.000000" stroke="none" 
	d="
M118.648865,50.422615 
	C119.057686,50.233524 119.003510,50.579205 119.014038,50.753838 
	C117.772659,52.136078 117.756081,53.445160 118.891914,55.081860 
	C119.080032,55.330261 119.000259,55.491035 119.014679,55.470802 
	C116.861259,56.403114 116.550156,60.489388 112.500671,59.013245 
	C109.696808,55.026730 110.070595,50.945713 111.766884,46.430149 
	C112.060898,46.043476 112.005379,46.065479 112.034164,46.073555 
	C113.328636,44.914738 114.712578,44.688255 116.559059,45.875969 
	C117.482483,47.622150 116.249115,49.611935 118.648865,50.422615 
z"/>
<path fill="#2E3A42" opacity="1.000000" stroke="none" 
	d="
M67.359756,57.005127 
	C67.271240,53.603378 64.931572,53.819973 62.762119,54.134304 
	C61.907654,54.258110 61.013672,55.492176 60.569515,53.812725 
	C60.368523,53.052715 60.392708,52.143295 60.604416,51.382236 
	C61.082706,49.662849 61.975277,50.955891 62.809711,51.112114 
	C64.425766,51.414673 66.100746,51.509544 67.155052,49.319130 
	C67.630371,48.690605 68.034767,48.453873 68.645752,48.105682 
	C68.643211,50.699280 67.992790,53.404930 68.917267,56.560581 
	C68.541534,57.008949 68.111794,57.005268 67.359756,57.005127 
z"/>
<path fill="#2E3A42" opacity="1.000000" stroke="none" 
	d="
M111.700142,46.023609 
	C111.998322,50.052422 111.935745,54.061367 111.956131,58.525818 
	C111.589417,59.003445 111.139748,59.025562 110.352875,59.027447 
	C108.645287,54.948685 107.277298,50.890144 109.918037,46.429302 
	C110.376556,46.035713 110.857979,46.019730 111.700142,46.023609 
z"/>
<path fill="#2E3A42" opacity="1.000000" stroke="none" 
	d="
M132.548508,49.026478 
	C133.046844,49.945408 132.894455,51.449718 133.453949,51.792671 
	C136.615570,53.730663 134.513702,54.953674 132.986694,56.670879 
	C132.526306,57.014271 132.121796,57.013699 131.413879,57.016914 
	C129.947495,53.276375 126.483337,56.189243 124.254265,54.825497 
	C126.494446,52.532154 132.656570,56.670086 131.641632,49.619122 
	C131.803848,49.175247 132.015182,49.125404 132.548508,49.026478 
z"/>
<path fill="#222426" opacity="1.000000" stroke="none" 
	d="
M95.977158,55.910835 
	C96.068886,52.517292 96.528519,49.143551 93.153107,46.399403 
	C93.659210,44.681190 94.613525,43.542027 96.520081,43.036152 
	C96.897629,47.026134 96.951904,51.055229 96.936279,55.543190 
	C96.668488,55.984402 96.470596,55.966747 95.977158,55.910835 
z"/>
<path fill="#7ABADD" opacity="1.000000" stroke="none" 
	d="
M112.342117,44.364796 
	C111.022392,42.604103 110.536110,40.909134 112.762932,40.340611 
	C114.870636,39.802502 117.158951,39.867577 116.997284,43.532463 
	C115.696701,45.095070 114.256721,45.102333 112.342117,44.364796 
z"/>
<path fill="#202122" opacity="1.000000" stroke="none" 
	d="
M81.271988,49.235657 
	C80.789986,48.552280 80.454102,48.126720 80.027649,47.442478 
	C80.345360,44.731915 81.764915,44.623940 83.863403,45.877876 
	C83.730354,47.209953 83.379143,48.248081 82.941895,49.610626 
	C82.197845,50.369896 81.787849,49.997196 81.271988,49.235657 
z"/>
<path fill="#202122" opacity="1.000000" stroke="none" 
	d="
M208.664398,50.182945 
	C207.961685,49.252693 207.565140,48.528534 207.045929,47.514709 
	C207.228775,44.697609 208.636505,44.783989 210.745361,45.893776 
	C210.856522,47.143478 209.519623,47.889717 210.162537,49.565350 
	C209.922394,50.258850 209.480576,50.414536 208.664398,50.182945 
z"/>
<path fill="#384750" opacity="1.000000" stroke="none" 
	d="
M111.970917,44.463619 
	C113.345764,44.137985 114.741852,44.135880 116.545280,44.028385 
	C116.938225,44.427788 116.923820,44.932575 116.896637,45.816124 
	C115.544853,46.161320 114.205841,46.127754 112.464890,46.087906 
	C112.039352,45.650135 112.015747,45.218639 111.970917,44.463619 
z"/>
<path fill="#4B6C7F" opacity="1.000000" stroke="none" 
	d="
M194.143494,50.783813 
	C193.943985,49.996056 194.080078,49.223251 194.378021,48.092407 
	C194.852737,47.809998 195.156281,47.913010 195.686386,47.994553 
	C195.797134,48.795765 195.672028,49.645832 195.334381,50.745140 
	C194.907578,50.929176 194.693329,50.863976 194.143494,50.783813 
z"/>
<path fill="#384750" opacity="1.000000" stroke="none" 
	d="
M272.818542,185.743286 
	C272.690613,187.330734 272.513397,188.661865 271.040100,188.657333 
	C269.643799,188.653046 269.980957,187.301346 269.864014,186.394455 
	C269.822144,186.070007 269.785858,185.719803 269.861816,185.409439 
	C270.260010,183.782578 268.838806,180.858398 270.939514,180.721375 
	C273.892426,180.528748 272.402344,183.640869 272.818542,185.743286 
z"/>
<path fill="#323030" opacity="1.000000" stroke="none" 
	d="
M296.728210,190.698929 
	C295.214813,191.001083 294.523560,190.505646 294.745209,189.259705 
	C294.862640,188.599533 295.295044,188.009735 296.072937,188.153183 
	C297.444916,188.406204 297.147308,189.484177 296.728210,190.698929 
z"/>
<path fill="#85827C" opacity="1.000000" stroke="none" 
	d="
M571.157471,89.832687 
	C570.064697,89.017082 569.904297,88.151642 570.623840,87.332512 
	C570.795776,87.136711 571.578064,87.123627 571.695984,87.293228 
	C572.287048,88.143608 572.137329,89.037064 571.157471,89.832687 
z"/>
<path fill="#5D5C59" opacity="1.000000" stroke="none" 
	d="
M500.810455,116.933792 
	C502.125641,117.678658 501.973724,118.371552 501.049133,118.766220 
	C500.258209,119.103813 499.401611,118.903801 499.207672,117.876389 
	C499.030304,116.936714 499.856781,116.984146 500.810455,116.933792 
z"/>
<path fill="#403F3D" opacity="1.000000" stroke="none" 
	d="
M515.035706,118.191025 
	C514.300476,118.201263 513.839783,118.149506 513.731628,117.926651 
	C512.759338,115.923286 512.690002,113.878448 513.797058,111.911880 
	C513.934753,111.667267 514.894531,111.526802 515.050110,111.705841 
	C516.770325,113.686073 516.152039,115.875229 515.035706,118.191025 
z"/>
<path fill="#272626" opacity="1.000000" stroke="none" 
	d="
M528.747437,84.853561 
	C528.344055,83.795914 528.488403,82.840004 529.552734,83.443863 
	C530.673645,84.079872 529.748169,84.637222 528.747437,84.853561 
z"/>
<path fill="#484745" opacity="1.000000" stroke="none" 
	d="
M541.489624,84.430275 
	C542.922363,82.058105 544.090210,82.425972 544.280334,84.604729 
	C544.432312,86.346306 545.501648,88.961716 543.009888,89.666641 
	C541.352112,90.135658 541.529907,88.001434 541.409241,86.774323 
	C541.345581,86.127716 541.411499,85.468353 541.489624,84.430275 
z"/>
<path fill="#5D5C59" opacity="1.000000" stroke="none" 
	d="
M591.310852,89.533463 
	C589.026245,89.810974 589.839233,88.402252 589.953003,87.427437 
	C589.975098,87.238152 590.840881,86.889511 591.039124,87.024193 
	C591.809265,87.547447 591.731506,88.402580 591.310852,89.533463 
z"/>
<path fill="#85827C" opacity="1.000000" stroke="none" 
	d="
M614.686340,89.107246 
	C615.032837,89.381638 614.991150,89.574738 614.835083,90.041435 
	C613.313171,89.491966 612.024841,91.686775 610.401672,90.372940 
	C611.101379,88.128006 612.988098,89.311104 614.686340,89.107246 
z"/>
<path fill="#4B6C7F" opacity="1.000000" stroke="none" 
	d="
M235.288498,58.933838 
	C235.105911,56.397175 235.290726,53.870495 235.475555,51.343815 
	C237.577057,53.392105 236.805801,55.792465 237.102631,58.446228 
	C236.634247,58.900211 236.145081,58.922016 235.288498,58.933838 
z"/>
<path fill="#2C2B2B" opacity="1.000000" stroke="none" 
	d="
M208.306366,50.374084 
	C208.786804,49.964813 209.215393,49.952778 209.964798,49.917515 
	C214.513870,52.001373 208.489151,52.119247 209.302124,53.810265 
	C208.841110,53.997616 208.641830,53.989204 208.144440,53.955673 
	C207.982391,52.877476 208.118439,51.824398 208.306366,50.374084 
z"/>
<path fill="#384750" opacity="1.000000" stroke="none" 
	d="
M81.089096,49.418137 
	C81.548843,49.235973 81.971809,49.494106 82.625320,49.843636 
	C82.894264,51.361553 82.932678,52.788074 82.908424,54.638824 
	C82.551155,55.144917 82.324516,55.316525 82.079933,55.777756 
	C81.861229,56.086071 81.728424,56.194527 81.374908,56.170929 
	C81.120232,53.978725 81.086273,51.918575 81.089096,49.418137 
z"/>
<path fill="#384750" opacity="1.000000" stroke="none" 
	d="
M205.997101,54.759872 
	C204.385162,54.361019 202.749420,56.304482 200.928192,54.920563 
	C202.125900,53.044594 203.874176,54.401470 205.625031,54.057602 
	C206.031540,54.106529 205.986984,54.541489 205.997101,54.759872 
z"/>
<path fill="#222426" opacity="1.000000" stroke="none" 
	d="
M144.008850,51.646503 
	C142.901260,51.709244 142.205841,51.291454 143.655365,50.113663 
	C144.002731,50.481808 144.003998,50.905323 144.008850,51.646503 
z"/>
<path fill="#222426" opacity="1.000000" stroke="none" 
	d="
M81.071045,56.266926 
	C81.154198,56.038876 81.574043,56.007122 81.784042,55.992371 
	C81.793022,56.245640 81.592010,56.513657 81.154816,56.878574 
	C80.918617,56.975475 80.987900,56.494976 81.071045,56.266926 
z"/>
<path fill="#2E3A42" opacity="1.000000" stroke="none" 
	d="
M155.400162,53.415359 
	C156.562592,52.948101 157.153473,53.415020 157.454956,54.245087 
	C157.703430,54.929207 157.082275,54.992668 156.677032,55.037037 
	C155.721466,55.141663 155.178574,54.697975 155.400162,53.415359 
z"/>
<path fill="#2E3A42" opacity="1.000000" stroke="none" 
	d="
M90.255051,52.767227 
	C90.080208,53.943783 89.849739,55.238197 88.941467,54.589432 
	C87.614273,53.641445 87.449211,51.922546 88.962891,50.953438 
	C89.942970,50.325951 90.124214,51.569847 90.255051,52.767227 
z"/>
<path fill="#222426" opacity="1.000000" stroke="none" 
	d="
M118.969101,54.895626 
	C116.534012,54.969475 116.268333,53.222691 118.661041,50.556881 
	C118.969109,52.105976 118.913643,53.283485 118.969101,54.895626 
z"/>
<path fill="#384750" opacity="1.000000" stroke="none" 
	d="
M75.904945,51.464230 
	C75.890480,52.897415 76.512550,54.351292 74.981941,54.726913 
	C73.824280,55.011017 73.763504,53.813564 73.821045,53.091160 
	C73.909882,51.975979 73.196579,49.798908 75.904945,51.464230 
z"/>
</svg>